<?xml version="1.0" encoding="UTF-8"?>
<svg width="50px" height="50px" viewBox="0 0 50 50" version="1.1" xmlns="http://www.w3.org/2000/svg" xmlns:xlink="http://www.w3.org/1999/xlink">
    <!-- Generator: Sketch 45.1 (43504) - http://www.bohemiancoding.com/sketch -->
    <title>06</title>
    <desc>Created with Sketch.</desc>
    <defs></defs>
    <g id="Icons" stroke="none" stroke-width="1" fill="none" fill-rule="evenodd">
        <g id="06" fill-rule="nonzero" fill="#ffffff">
            <g id="pic" transform="translate(10.000000, 13.500000)">
                <path d="M27.6315789,0 L2.36842105,0 C1.06037822,0 0,1.02974508 0,2.3 L0,20.7 C0,21.9702549 1.06037822,23 2.36842105,23 L27.6315789,23 C28.9396218,23 30,21.9702549 30,20.7 L30,2.3 C30,1.02974508 28.9396218,0 27.6315789,0 Z M2.36842105,1.53333333 L27.6315789,1.53333333 C28.0675932,1.53333333 28.4210526,1.87658169 28.4210526,2.3 L28.4210526,18.883 L20.5973684,11.2853333 C20.301208,10.9974085 19.8993304,10.8356271 19.4802632,10.8356271 C19.0611959,10.8356271 18.6593183,10.9974085 18.3631579,11.2853333 L17.2105263,12.4046667 C17.1762278,12.3444671 17.133741,12.2890249 17.0842105,12.2398333 L10.6381579,5.98 C10.3419975,5.6920752 9.94011987,5.53029379 9.52105263,5.53029379 C9.1019854,5.53029379 8.70010777,5.6920752 8.40394737,5.98 L1.57894737,12.6116667 L1.57894737,2.3 C1.57894737,1.87658169 1.93240678,1.53333333 2.36842105,1.53333333 Z M27.6315789,21.4666667 L2.36842105,21.4666667 C1.93240678,21.4666667 1.57894737,21.1234183 1.57894737,20.7 L1.57894737,14.7813333 L9.52105263,7.06483333 L15.9710526,13.3285 C16.0207324,13.3749748 16.0764702,13.4149261 16.1368421,13.4473333 L13.9934211,15.5288333 C13.684941,15.8284018 13.684941,16.3140982 13.9934211,16.6136667 C14.3019012,16.9132351 14.8020462,16.9132351 15.1105263,16.6136667 L19.4802632,12.3701667 L28.2236842,20.861 C28.267699,20.9035024 28.3167218,20.9408157 28.3697368,20.9721667 C28.2533217,21.2698808 27.9595088,21.4667092 27.6315789,21.4666667 Z" id="Shape"></path>
                <path d="M24.3434211,8.1765 C25.4086865,8.17649884 26.3689843,7.55313081 26.776274,6.59723698 C27.1835637,5.64134314 26.95758,4.54130342 26.2037586,3.81035668 C25.4499373,3.07940995 24.3168355,2.86160535 23.3331177,3.25856267 C22.3493998,3.65551998 21.7089292,4.58901003 21.7105263,5.6235 C21.7127041,7.03410282 22.8908536,8.17650159 24.3434211,8.1765 Z M24.3434211,4.6 C24.9255001,4.6 25.3973684,5.05823656 25.3973684,5.6235 C25.3973684,6.18876344 24.9255001,6.647 24.3434211,6.647 C23.761342,6.647 23.2894737,6.18876344 23.2894737,5.6235 C23.2894737,5.05823656 23.761342,4.6 24.3434211,4.6 Z" id="Shape"></path>
            </g>
        </g>
    </g>
</svg>