<?xml version="1.0" encoding="UTF-8"?>
<svg width="50px" height="50px" viewBox="0 0 50 50" version="1.1" xmlns="http://www.w3.org/2000/svg" xmlns:xlink="http://www.w3.org/1999/xlink">
    <!-- Generator: Sketch 45.1 (43504) - http://www.bohemiancoding.com/sketch -->
    <title>03</title>
    <desc>Created with Sketch.</desc>
    <defs></defs>
    <g id="ICONS" stroke="none" stroke-width="1" fill="none" fill-rule="evenodd">
        <g id="03" fill-rule="nonzero" fill="#fff">
            <g id="LIKE-ICO" transform="translate(0.000000, 1.000000)">
                <path d="M25,50 L20.9853516,45.6870685 C14.3701172,39.4007428 9.41308594,34.5905285 5.86816406,29.9565664 C1.86425781,24.7246061 0,20.0444827 0,15.2279737 C0,11.0829014 1.45410156,7.2368283 4.09570312,4.40000839 C6.73730469,1.56318848 10.3164062,0 14.1748047,0 C18.1962891,0.00104911979 22.1679688,1.82861579 25,4.93715772 C27.8320312,1.82861579 31.8037109,0.00104911979 35.8251953,0.00104911979 C39.6835938,0.00104911979 43.2636719,1.56318848 45.9042969,4.40105751 C48.5449219,7.23892654 50,11.0829014 50,15.2279737 C50,20.0434336 48.1357422,24.7235569 44.1318359,29.9565664 C40.5869141,34.5905285 35.6289062,39.3986445 29.0146484,45.6870685 L25,50 Z" id="Shape"></path>
            </g>
        </g>
    </g>
</svg>