<?xml version="1.0" encoding="UTF-8"?>
<svg width="50px" height="50px" viewBox="0 0 50 50" version="1.1" xmlns="http://www.w3.org/2000/svg" xmlns:xlink="http://www.w3.org/1999/xlink">
    <!-- Generator: Sketch 45.1 (43504) - http://www.bohemiancoding.com/sketch -->
    <title>12</title>
    <desc>Created with Sketch.</desc>
    <defs></defs>
    <g id="ICONS" stroke="none" stroke-width="1" fill="none" fill-rule="evenodd">
        <g id="12" fill="#ffffff">
            <g id="SPORTS-ICO" transform="translate(0.000000, 7.000000)">
                <g>
                    <path d="M15.0565909,12.6301176 L36.9881818,12.6301176 C37.365,12.6301176 37.67,12.3141176 37.67,11.9242353 C37.67,11.5341176 37.365,11.2183529 36.9881818,11.2183529 L13.0111364,11.2183529 C12.6345455,11.2183529 12.3293182,11.5341176 12.3293182,11.9242353 C12.3293182,12.3141176 12.6345455,12.6301176 13.0111364,12.6301176 L13.6929545,12.6301176 L13.6929545,14.7477647 C13.6929545,15.1376471 13.9981818,15.4536471 14.3747727,15.4536471 C14.7513636,15.4536471 15.0565909,15.1376471 15.0565909,14.7477647 L15.0565909,12.6301176 Z M0.0565909091,28.4808033 L0.0565909091,17.4677647 C0.0565909091,12.9767059 3.57318182,9.336 7.91136364,9.336 L42.0881818,9.336 C46.4261364,9.336 49.9427273,12.9767059 49.9427273,17.4677647 L49.9427273,28.4808033 C49.9427273,34.5140417 43.7333655,35.7910588 42.2650482,35.7910588 C34.314673,35.7910588 22.711636,35.7910588 7.45593723,35.7910588 C6.10887622,35.7910588 0.0565909091,34.3986504 0.0565909091,28.4808033 Z M7.95431818,35.7910588 L10.6815909,35.7910588 L10.6815909,9.33623529 L7.95431818,9.33623529 L7.95431818,35.7910588 Z M39.3177273,35.7910588 L42.045,35.7910588 L42.045,9.33623529 L39.3177273,9.33623529 L39.3177273,35.7910588 Z" id="Combined-Shape"></path>
                    <path d="M19.8102273,9.33623529 L19.8102273,4.17952941 C19.8102273,3.53082353 20.3202273,3.00305882 20.9465909,3.00305882 L29.0527273,3.00305882 C29.6795455,3.00305882 30.1890909,3.53082353 30.1890909,4.17952941 L30.1890909,9.33623529 L32.9163636,9.33623529 L32.9163636,4.17952941 C32.9163636,1.97388235 31.1834091,0.179529412 29.0527273,0.179529412 L20.9465909,0.179529412 C18.8161364,0.179529412 17.0829545,1.97388235 17.0829545,4.17952941 L17.0829545,9.33623529 L19.8102273,9.33623529" id="Fill-113"></path>
                </g>
            </g>
        </g>
    </g>
</svg>